<?xml version="1.0" encoding="UTF-8"?>
<svg id="Layer_2" data-name="Layer 2" xmlns="http://www.w3.org/2000/svg" viewBox="0 0 485.39 268.44">
  <defs>
    <style>
      .cls-1, .cls-2, .cls-3, .cls-4 {
        stroke-width: 0px;
      }

      .cls-5 {
        font-family: BioSans-ExtraBold, 'Bio Sans';
        font-size: 17.67px;
        font-weight: 700;
        isolation: isolate;
      }

      .cls-5, .cls-2 {
        fill: #fff;
      }

      .cls-6 {
        opacity: .08;
      }

      .cls-3 {
        fill: #ffd071;
      }

      .cls-4 {
        fill: #ea9a96;
      }

      .cls-7 {
        opacity: .1;
      }
    </style>
  </defs>
  <g id="Layer_1-2" data-name="Layer 1">
    <g>
      <g>
        <g class="cls-7">
          <path class="cls-1" d="M137.77,105.25l-24.16-34.34c-1.91-2.72-6.42-2.72-8.34,0l-24.16,34.34c-2.02,2.87.33,6.57,4.17,6.57h0c2.71,0,4.9,1.93,4.9,4.3v17.57c0,2.38,2.19,4.3,4.9,4.3h28.73c2.71,0,4.9-1.93,4.9-4.3v-17.57c0-2.38,2.19-4.3,4.9-4.3h0c3.84,0,6.18-3.7,4.17-6.57Z"/>
          <path class="cls-1" d="M90.18,117.42l34.71-30.49-10.66-15.14-25.08,22.03-8.04,11.42c-2.02,2.87.33,6.57,4.17,6.57,2.71,0,4.9,1.93,4.9,4.3v1.31h0Z"/>
          <polygon class="cls-1" points="90.18 126.31 128.75 92.43 126.87 89.75 90.18 121.97 90.18 126.31"/>
          <path class="cls-1" d="M137.77,105.25l-7.04-10.01-40.55,35.62v2.83c0,2.38,2.19,4.3,4.9,4.3h14.88l18.75-16.47v-5.41c0-2.38,2.19-4.3,4.9-4.3,3.84,0,6.18-3.7,4.17-6.56Z"/>
          <polygon class="cls-1" points="120.07 137.99 128.71 130.41 128.71 126.07 115.13 137.99 120.07 137.99"/>
        </g>
        <g>
          <path class="cls-3" d="M137.77,98.25l-24.16-34.34c-1.91-2.72-6.42-2.72-8.34,0l-24.16,34.34c-2.02,2.87.33,6.57,4.17,6.57h0c2.71,0,4.9,1.93,4.9,4.3v17.57c0,2.38,2.19,4.3,4.9,4.3h28.73c2.71,0,4.9-1.93,4.9-4.3v-17.57c0-2.38,2.19-4.3,4.9-4.3h0c3.84,0,6.18-3.7,4.17-6.57Z"/>
          <g class="cls-7">
            <path class="cls-2" d="M90.18,110.42l34.71-30.49-10.66-15.14-25.08,22.03-8.04,11.42c-2.02,2.87.33,6.57,4.17,6.57,2.71,0,4.9,1.93,4.9,4.3v1.31h0Z"/>
            <polygon class="cls-2" points="90.18 119.31 128.75 85.43 126.87 82.75 90.18 114.97 90.18 119.31"/>
            <path class="cls-2" d="M137.77,98.25l-7.04-10.01-40.55,35.62v2.83c0,2.38,2.19,4.3,4.9,4.3h14.88l18.75-16.47v-5.41c0-2.38,2.19-4.3,4.9-4.3,3.84,0,6.18-3.7,4.17-6.56Z"/>
            <polygon class="cls-2" points="120.07 130.99 128.71 123.41 128.71 119.07 115.13 130.99 120.07 130.99"/>
          </g>
        </g>
      </g>
      <text class="cls-5" transform="translate(94.16 103.84)"><tspan x="0" y="0">BUY</tspan></text>
    </g>
    <g>
      <g>
        <g class="cls-7">
          <path class="cls-1" d="M348.65,138.4l24.16,34.34c1.92,2.72,6.42,2.72,8.33,0l24.16-34.34c2.02-2.87-.33-6.57-4.17-6.57h0c-2.71,0-4.9-1.93-4.9-4.3v-17.57c0-2.38-2.19-4.3-4.9-4.3h-28.73c-2.71,0-4.9,1.93-4.9,4.3v17.57c0,2.38-2.19,4.3-4.9,4.3h0c-3.84,0-6.18,3.7-4.17,6.57Z"/>
          <path class="cls-1" d="M396.24,126.22l-34.71,30.49,10.66,15.14,25.08-22.03,8.04-11.42c2.02-2.87-.33-6.57-4.17-6.57-2.71,0-4.9-1.93-4.9-4.3v-1.31h0Z"/>
          <polygon class="cls-1" points="396.24 117.34 357.67 151.22 359.55 153.9 396.24 121.67 396.24 117.34"/>
          <path class="cls-1" d="M348.65,138.4l7.04,10.01,40.55-35.62v-2.83c0-2.38-2.19-4.3-4.9-4.3h-14.88l-18.75,16.47v5.41c0,2.38-2.19,4.3-4.9,4.3-3.84,0-6.18,3.7-4.17,6.56Z"/>
          <polygon class="cls-1" points="366.35 105.66 357.71 113.24 357.71 117.58 371.28 105.66 366.35 105.66"/>
        </g>
        <g>
          <path class="cls-4" d="M348.65,131.4l24.16,34.34c1.92,2.72,6.42,2.72,8.33,0l24.16-34.34c2.02-2.87-.33-6.57-4.17-6.57h0c-2.71,0-4.9-1.93-4.9-4.3v-17.57c0-2.38-2.19-4.3-4.9-4.3h-28.73c-2.71,0-4.9,1.93-4.9,4.3v17.57c0,2.38-2.19,4.3-4.9,4.3h0c-3.84,0-6.18,3.7-4.17,6.57Z"/>
          <g class="cls-7">
            <path class="cls-2" d="M396.24,119.22l-34.71,30.49,10.66,15.14,25.08-22.03,8.04-11.42c2.02-2.87-.33-6.57-4.17-6.57-2.71,0-4.9-1.93-4.9-4.3v-1.31h0Z"/>
            <polygon class="cls-2" points="396.24 110.34 357.67 144.22 359.55 146.9 396.24 114.67 396.24 110.34"/>
            <path class="cls-2" d="M348.65,131.4l7.04,10.01,40.55-35.62v-2.83c0-2.38-2.19-4.3-4.9-4.3h-14.88l-18.75,16.47v5.41c0,2.38-2.19,4.3-4.9,4.3-3.84,0-6.18,3.7-4.17,6.56Z"/>
            <polygon class="cls-2" points="366.35 98.66 357.71 106.24 357.71 110.58 371.28 98.66 366.35 98.66"/>
          </g>
        </g>
      </g>
      <text class="cls-5" transform="translate(359.91 140.41)"><tspan x="0" y="0">SELL</tspan></text>
    </g>
    <g>
      <g class="cls-6">
        <path class="cls-1" d="M279.95,98.28v5.78h-4.6v-5.71c-7.42-.52-12.93-4.33-15.29-10.63l9.06-5.25c1.38,3.15,3.29,4.99,6.24,5.51v-9.06c-.26-.13-.59-.2-.86-.33-5.71-2.3-12.54-5.51-12.54-14.31s6.43-12.93,13.39-13.59v-5.71h4.6v5.84c5.64.72,10.37,3.74,12.93,9.52l-8.86,5.18c-.85-2.3-2.17-3.61-4.07-4.27v8.86c5.71,2.43,13.46,4.6,13.46,14.18,0,8.21-5.65,13.06-13.46,13.98ZM275.35,67.94v-6.89c-1.9.46-2.89,1.71-2.89,3.28,0,1.25.59,2.3,2.89,3.61ZM282.9,84.42c0-1.64-.98-2.62-2.95-3.61v7.02c2.23-.59,2.95-2.03,2.95-3.41Z"/>
        <path class="cls-1" d="M24.93,78.69v5.61c5.42.69,9.95,3.59,12.41,9.14l-8.51,4.98c-.82-2.21-2.08-3.47-3.9-4.09v8.5c5.48,2.33,12.92,4.41,12.92,13.61,0,7.88-5.42,12.54-12.92,13.42v5.54h-4.41v-5.48c-7.12-.5-12.41-4.16-14.68-10.21l8.69-5.04c1.32,3.02,3.16,4.79,5.99,5.29v-8.69c-.25-.13-.56-.19-.82-.32-5.48-2.21-12.03-5.29-12.03-13.74s6.17-12.41,12.85-13.04v-5.48h4.41M20.52,100.75v-6.62c-1.83.44-2.77,1.64-2.77,3.15,0,1.2.57,2.21,2.77,3.47M24.93,119.84c2.14-.57,2.83-1.95,2.83-3.28,0-1.57-.94-2.52-2.83-3.47v6.74M24.93,76.69h-4.41c-1.1,0-2,.9-2,2v3.74c-3.21.6-6.1,1.97-8.27,3.94-2.99,2.72-4.58,6.46-4.58,10.84,0,9.93,8.13,13.51,12.85,15.42v4.33c-.85-.68-1.54-1.68-2.15-3.09-.23-.52-.67-.92-1.21-1.1-.2-.07-.41-.1-.62-.1-.35,0-.7.09-1,.27l-8.69,5.04c-.85.49-1.21,1.52-.87,2.43,2.33,6.21,7.58,10.26,14.55,11.3v3.69c0,1.1.9,2,2,2h4.41c1.1,0,2-.9,2-2v-3.84c8.02-1.59,12.92-7.26,12.92-15.13,0-9.68-7.27-12.65-12.58-14.81-.11-.05-.23-.09-.34-.14v-2.46s.02.05.03.08c.21.55.65.99,1.2,1.19.22.08.45.12.67.12.35,0,.7-.09,1.01-.27l8.51-4.98c.88-.51,1.23-1.61.82-2.54-2.34-5.29-6.65-8.79-12.24-10.01v-3.92c0-1.1-.9-2-2-2h0Z"/>
        <path class="cls-1" d="M473.83,154.64v4.15c4.01.51,7.37,2.66,9.18,6.76l-6.29,3.68c-.6-1.63-1.54-2.57-2.89-3.03v6.29c4.05,1.73,9.56,3.26,9.56,10.07,0,5.83-4.01,9.28-9.56,9.93v4.1h-3.27v-4.06c-5.27-.37-9.18-3.08-10.86-7.55l6.43-3.73c.98,2.24,2.34,3.54,4.43,3.92v-6.43c-.19-.09-.42-.14-.61-.23-4.05-1.63-8.9-3.92-8.9-10.17s4.57-9.18,9.51-9.65v-4.06h3.26M470.56,170.96v-4.9c-1.35.33-2.05,1.21-2.05,2.33,0,.89.42,1.63,2.05,2.57M473.83,185.09c1.58-.42,2.1-1.45,2.1-2.42,0-1.17-.7-1.86-2.1-2.57v4.99M473.83,152.64h-3.27c-1.1,0-2,.9-2,2v2.35c-4.98,1.11-9.51,4.84-9.51,11.36,0,7.47,5.86,10.27,9.51,11.76v1.48c-.2-.31-.4-.68-.6-1.13-.23-.52-.67-.92-1.21-1.1-.2-.07-.41-.1-.62-.1-.35,0-.7.09-1,.27l-6.43,3.73c-.84.49-1.21,1.52-.87,2.43,1.74,4.65,5.6,7.72,10.73,8.62v2.29c0,1.11.9,2,2,2h3.27c1.1,0,2-.89,2-2v-2.42c5.94-1.33,9.56-5.66,9.56-11.62,0-7.47-5.72-9.85-9.56-11.41v-.13c.07.04.14.07.22.09.22.08.45.12.67.12.35,0,.7-.09,1.01-.27l6.29-3.68c.88-.51,1.23-1.61.82-2.54-1.75-3.94-4.91-6.6-9.01-7.61v-2.49c0-1.1-.9-2-2-2h0Z"/>
        <path class="cls-1" d="M207.7,30.03v4.15c1.32-.35,1.74-1.2,1.74-2.01,0-.97-.58-1.55-1.74-2.13Z"/>
        <path class="cls-1" d="M205.8,2c-13.43,0-24.31,10.89-24.31,24.31s10.89,24.31,24.31,24.31,24.31-10.89,24.31-24.31-10.88-24.31-24.31-24.31ZM207.7,40.34v3.41h-2.71v-3.37c-4.38-.31-7.63-2.56-9.03-6.28l5.35-3.1c.81,1.86,1.94,2.95,3.68,3.25v-5.35c-.15-.08-.35-.12-.51-.19-3.37-1.36-7.4-3.25-7.4-8.45s3.8-7.63,7.9-8.02v-3.37h2.71v3.45c3.33.43,6.12,2.21,7.63,5.62l-5.23,3.06c-.5-1.36-1.28-2.13-2.4-2.52v5.23c3.37,1.43,7.95,2.71,7.95,8.37,0,4.84-3.34,7.71-7.95,8.25Z"/>
        <path class="cls-1" d="M203.28,20.31c0,.74.35,1.36,1.7,2.13v-4.07c-1.12.27-1.7,1.01-1.7,1.94Z"/>
        <path class="cls-1" d="M423.89,71.95v2.56c.81-.21,1.08-.74,1.08-1.24,0-.6-.36-.96-1.08-1.32Z"/>
        <path class="cls-1" d="M422.72,54.65c-8.29,0-15.01,6.72-15.01,15.01s6.72,15.01,15.01,15.01,15.01-6.72,15.01-15.01-6.72-15.01-15.01-15.01ZM423.89,78.31v2.1h-1.67v-2.08c-2.7-.19-4.71-1.58-5.57-3.88l3.3-1.91c.5,1.15,1.2,1.82,2.27,2.01v-3.3c-.09-.05-.21-.07-.31-.12-2.08-.84-4.57-2.01-4.57-5.21s2.34-4.71,4.88-4.95v-2.08h1.67v2.13c2.06.26,3.78,1.36,4.71,3.47l-3.23,1.89c-.31-.84-.79-1.32-1.48-1.55v3.23c2.08.88,4.9,1.68,4.9,5.17,0,2.99-2.06,4.76-4.9,5.09Z"/>
        <path class="cls-1" d="M421.17,65.95c0,.46.21.84,1.05,1.32v-2.51c-.69.17-1.05.62-1.05,1.2Z"/>
        <path class="cls-1" d="M16.18,255.73v2.56c.81-.21,1.07-.74,1.07-1.24,0-.6-.36-.96-1.07-1.32Z"/>
        <path class="cls-1" d="M15.01,238.43c-8.29,0-15.01,6.72-15.01,15.01s6.72,15.01,15.01,15.01,15.01-6.72,15.01-15.01-6.72-15.01-15.01-15.01ZM16.18,262.09v2.1h-1.68v-2.08c-2.7-.19-4.71-1.58-5.57-3.88l3.3-1.91c.5,1.15,1.2,1.82,2.27,2.01v-3.3c-.1-.05-.21-.07-.31-.12-2.08-.84-4.57-2.01-4.57-5.21s2.34-4.71,4.88-4.95v-2.08h1.68v2.13c2.06.26,3.78,1.36,4.71,3.47l-3.23,1.89c-.31-.84-.79-1.32-1.48-1.55v3.23c2.08.89,4.9,1.67,4.9,5.17,0,2.99-2.06,4.76-4.9,5.1Z"/>
        <path class="cls-1" d="M13.45,249.73c0,.45.21.84,1.05,1.32v-2.51c-.69.17-1.05.62-1.05,1.19Z"/>
      </g>
      <g>
        <path class="cls-3" d="M279.95,96.28v5.78h-4.6v-5.71c-7.42-.52-12.93-4.33-15.29-10.63l9.06-5.25c1.38,3.15,3.29,4.99,6.24,5.51v-9.06c-.26-.13-.59-.2-.86-.33-5.71-2.3-12.54-5.51-12.54-14.31s6.43-12.93,13.39-13.59v-5.71h4.6v5.84c5.64.72,10.37,3.74,12.93,9.52l-8.86,5.18c-.85-2.3-2.17-3.61-4.07-4.27v8.86c5.71,2.43,13.46,4.6,13.46,14.18,0,8.21-5.65,13.06-13.46,13.98ZM275.35,65.94v-6.89c-1.9.46-2.89,1.71-2.89,3.28,0,1.25.59,2.3,2.89,3.61ZM282.9,82.42c0-1.64-.98-2.62-2.95-3.61v7.02c2.23-.59,2.95-2.03,2.95-3.41Z"/>
        <path class="cls-3" d="M24.93,76.69v5.61c5.42.69,9.95,3.59,12.41,9.14l-8.51,4.98c-.82-2.21-2.08-3.47-3.9-4.09v8.5c5.48,2.33,12.92,4.41,12.92,13.61,0,7.88-5.42,12.54-12.92,13.42v5.54h-4.41v-5.48c-7.12-.5-12.41-4.16-14.68-10.21l8.69-5.04c1.32,3.02,3.16,4.79,5.99,5.29v-8.69c-.25-.13-.56-.19-.82-.32-5.48-2.21-12.03-5.29-12.03-13.74s6.17-12.41,12.85-13.04v-5.48h4.41M20.52,98.75v-6.62c-1.83.44-2.77,1.64-2.77,3.15,0,1.2.57,2.21,2.77,3.47M24.93,117.84c2.14-.57,2.83-1.95,2.83-3.28,0-1.57-.94-2.52-2.83-3.47v6.74M24.93,74.69h-4.41c-1.1,0-2,.9-2,2v3.74c-3.21.6-6.1,1.97-8.27,3.94-2.99,2.72-4.58,6.46-4.58,10.84,0,9.93,8.13,13.51,12.85,15.42v4.33c-.85-.68-1.54-1.68-2.15-3.09-.23-.52-.67-.92-1.21-1.1-.2-.07-.41-.1-.62-.1-.35,0-.7.09-1,.27l-8.69,5.04c-.85.49-1.21,1.52-.87,2.43,2.33,6.21,7.58,10.26,14.55,11.3v3.69c0,1.1.9,2,2,2h4.41c1.1,0,2-.9,2-2v-3.84c8.02-1.59,12.92-7.26,12.92-15.13,0-9.68-7.27-12.65-12.58-14.81-.11-.05-.23-.09-.34-.14v-2.46s.02.05.03.08c.21.55.65.99,1.2,1.19.22.08.45.12.67.12.35,0,.7-.09,1.01-.27l8.51-4.98c.88-.51,1.23-1.61.82-2.54-2.34-5.29-6.65-8.79-12.24-10.01v-3.92c0-1.1-.9-2-2-2h0Z"/>
        <path class="cls-3" d="M473.83,152.64v4.15c4.01.51,7.37,2.66,9.18,6.76l-6.29,3.68c-.6-1.63-1.54-2.57-2.89-3.03v6.29c4.05,1.73,9.56,3.26,9.56,10.07,0,5.83-4.01,9.28-9.56,9.93v4.1h-3.27v-4.06c-5.27-.37-9.18-3.08-10.86-7.55l6.43-3.73c.98,2.24,2.34,3.54,4.43,3.92v-6.43c-.19-.09-.42-.14-.61-.23-4.05-1.63-8.9-3.92-8.9-10.17s4.57-9.18,9.51-9.65v-4.06h3.26M470.56,168.96v-4.9c-1.35.33-2.05,1.21-2.05,2.33,0,.89.42,1.63,2.05,2.57M473.83,183.09c1.58-.42,2.1-1.45,2.1-2.42,0-1.17-.7-1.86-2.1-2.57v4.99M473.83,150.64h-3.27c-1.1,0-2,.9-2,2v2.35c-4.98,1.11-9.51,4.84-9.51,11.36,0,7.47,5.86,10.27,9.51,11.76v1.48c-.2-.31-.4-.68-.6-1.13-.23-.52-.67-.92-1.21-1.1-.2-.07-.41-.1-.62-.1-.35,0-.7.09-1,.27l-6.43,3.73c-.84.49-1.21,1.52-.87,2.43,1.74,4.65,5.6,7.72,10.73,8.62v2.29c0,1.11.9,2,2,2h3.27c1.1,0,2-.89,2-2v-2.42c5.94-1.33,9.56-5.66,9.56-11.62,0-7.47-5.72-9.85-9.56-11.41v-.13c.07.04.14.07.22.09.22.08.45.12.67.12.35,0,.7-.09,1.01-.27l6.29-3.68c.88-.51,1.23-1.61.82-2.54-1.75-3.94-4.91-6.6-9.01-7.61v-2.49c0-1.1-.9-2-2-2h0Z"/>
        <g>
          <path class="cls-3" d="M207.7,28.03v4.15c1.32-.35,1.74-1.2,1.74-2.01,0-.97-.58-1.55-1.74-2.13Z"/>
          <path class="cls-3" d="M205.8,0c-13.43,0-24.31,10.89-24.31,24.31s10.89,24.31,24.31,24.31,24.31-10.89,24.31-24.31S219.23,0,205.8,0ZM207.7,38.34v3.41h-2.71v-3.37c-4.38-.31-7.63-2.56-9.03-6.28l5.35-3.1c.81,1.86,1.94,2.95,3.68,3.25v-5.35c-.15-.08-.35-.12-.51-.19-3.37-1.36-7.4-3.25-7.4-8.45s3.8-7.63,7.9-8.02v-3.37h2.71v3.45c3.33.43,6.12,2.21,7.63,5.62l-5.23,3.06c-.5-1.36-1.28-2.13-2.4-2.52v5.23c3.37,1.43,7.95,2.71,7.95,8.37,0,4.84-3.34,7.71-7.95,8.25Z"/>
          <path class="cls-3" d="M203.28,18.31c0,.74.35,1.36,1.7,2.13v-4.07c-1.12.27-1.7,1.01-1.7,1.94Z"/>
        </g>
        <g>
          <path class="cls-3" d="M423.89,69.95v2.56c.81-.21,1.08-.74,1.08-1.24,0-.6-.36-.96-1.08-1.32Z"/>
          <path class="cls-3" d="M422.72,52.65c-8.29,0-15.01,6.72-15.01,15.01s6.72,15.01,15.01,15.01,15.01-6.72,15.01-15.01-6.72-15.01-15.01-15.01ZM423.89,76.31v2.1h-1.67v-2.08c-2.7-.19-4.71-1.58-5.57-3.88l3.3-1.91c.5,1.15,1.2,1.82,2.27,2.01v-3.3c-.09-.05-.21-.07-.31-.12-2.08-.84-4.57-2.01-4.57-5.21s2.34-4.71,4.88-4.95v-2.08h1.67v2.13c2.06.26,3.78,1.36,4.71,3.47l-3.23,1.89c-.31-.84-.79-1.32-1.48-1.55v3.23c2.08.88,4.9,1.68,4.9,5.17,0,2.99-2.06,4.76-4.9,5.09Z"/>
          <path class="cls-3" d="M421.17,63.95c0,.46.21.84,1.05,1.32v-2.51c-.69.17-1.05.62-1.05,1.2Z"/>
        </g>
        <g>
          <path class="cls-3" d="M16.18,253.73v2.56c.81-.21,1.07-.74,1.07-1.24,0-.6-.36-.96-1.07-1.32Z"/>
          <path class="cls-3" d="M15.01,236.43c-8.29,0-15.01,6.72-15.01,15.01s6.72,15.01,15.01,15.01,15.01-6.72,15.01-15.01-6.72-15.01-15.01-15.01ZM16.18,260.09v2.1h-1.68v-2.08c-2.7-.19-4.71-1.58-5.57-3.88l3.3-1.91c.5,1.15,1.2,1.82,2.27,2.01v-3.3c-.1-.05-.21-.07-.31-.12-2.08-.84-4.57-2.01-4.57-5.21s2.34-4.71,4.88-4.95v-2.08h1.68v2.13c2.06.26,3.78,1.36,4.71,3.47l-3.23,1.89c-.31-.84-.79-1.32-1.48-1.55v3.23c2.08.89,4.9,1.67,4.9,5.17,0,2.99-2.06,4.76-4.9,5.1Z"/>
          <path class="cls-3" d="M13.45,247.73c0,.45.21.84,1.05,1.32v-2.51c-.69.17-1.05.62-1.05,1.19Z"/>
        </g>
      </g>
    </g>
  </g>
</svg>