<?xml version="1.0" encoding="UTF-8"?>
<svg id="Layer_2" data-name="Layer 2" xmlns="http://www.w3.org/2000/svg" viewBox="0 0 407.19 195.97">
  <defs>
    <style>
      .cls-1 {
        stroke: #ffd071;
      }

      .cls-1, .cls-2 {
        fill: none;
        stroke-miterlimit: 10;
      }

      .cls-3 {
        fill: #b3b3b3;
      }

      .cls-3, .cls-4, .cls-5 {
        stroke-width: 0px;
      }

      .cls-6 {
        opacity: .3;
      }

      .cls-2 {
        stroke: #ea9a96;
      }

      .cls-4 {
        fill: #ffd071;
      }

      .cls-5 {
        fill: #ea9a96;
      }
    </style>
  </defs>
  <g id="Layer_1-2" data-name="Layer 1">
    <g class="cls-6">
      <polygon class="cls-3" points="19.24 71.84 18.24 71.84 18.24 98.99 13.34 98.99 13.34 146.11 18.24 146.11 18.24 150.97 19.24 150.97 19.24 146.11 24.13 146.11 24.13 98.99 19.24 98.99 19.24 71.84"/>
      <polygon class="cls-3" points="29.17 149.68 34.06 149.68 34.06 159.62 35.06 159.62 35.06 149.68 39.96 149.68 39.96 116.12 29.17 116.12 29.17 149.68"/>
      <polygon class="cls-3" points="50.95 38.74 49.95 38.74 49.95 65.88 45.05 65.88 45.05 126.3 55.84 126.3 55.84 65.88 50.95 65.88 50.95 38.74"/>
      <polygon class="cls-3" points="66.77 82.98 65.77 82.98 65.77 110.13 60.88 110.13 60.88 187 65.77 187 65.77 190.51 66.77 190.51 66.77 187 71.67 187 71.67 110.13 66.77 110.13 66.77 82.98"/>
      <polygon class="cls-3" points="82.65 53.38 81.65 53.38 81.65 80.52 76.76 80.52 76.76 140.95 87.55 140.95 87.55 80.52 82.65 80.52 82.65 53.38"/>
      <polygon class="cls-3" points="98.48 20.05 97.48 20.05 97.48 47.19 92.59 47.19 92.59 94.32 97.48 94.32 97.48 99.18 98.48 99.18 98.48 94.32 103.38 94.32 103.38 47.19 98.48 47.19 98.48 20.05"/>
      <polygon class="cls-3" points="114.36 23.45 113.36 23.45 113.36 29.43 108.47 29.43 108.47 61.87 113.36 61.87 113.36 66.74 114.36 66.74 114.36 61.87 119.26 61.87 119.26 29.43 114.36 29.43 114.36 23.45"/>
      <polygon class="cls-3" points="130.19 47.27 129.19 47.27 129.19 52.22 124.3 52.22 124.3 75.46 129.19 75.46 129.19 94.24 130.19 94.24 130.19 75.46 135.09 75.46 135.09 52.22 130.19 52.22 130.19 47.27"/>
      <polygon class="cls-3" points="146.07 33.87 145.07 33.87 145.07 61.02 140.18 61.02 140.18 99.18 145.07 99.18 145.07 113 146.07 113 146.07 99.18 150.97 99.18 150.97 61.02 146.07 61.02 146.07 33.87"/>
      <polygon class="cls-3" points="161.9 20.05 160.9 20.05 160.9 32.28 156.01 32.28 156.01 94.32 160.9 94.32 160.9 99.18 161.9 99.18 161.9 94.32 166.8 94.32 166.8 32.28 161.9 32.28 161.9 20.05"/>
      <polygon class="cls-3" points="177.78 31.19 176.78 31.19 176.78 58.33 171.89 58.33 171.89 132.51 182.68 132.51 182.68 58.33 177.78 58.33 177.78 31.19"/>
      <polygon class="cls-3" points="193.61 66.07 192.61 66.07 192.61 105.64 187.71 105.64 187.71 140.34 192.61 140.34 192.61 145.2 193.61 145.2 193.61 140.34 198.51 140.34 198.51 105.64 193.61 105.64 193.61 66.07"/>
      <polygon class="cls-3" points="209.49 111.59 208.49 111.59 208.49 125.46 203.6 125.46 203.6 150.64 208.49 150.64 208.49 154.22 209.49 154.22 209.49 150.64 214.39 150.64 214.39 125.46 209.49 125.46 209.49 111.59"/>
      <polygon class="cls-3" points="225.32 97.16 224.32 97.16 224.32 105.64 219.42 105.64 219.42 136.14 224.32 136.14 224.32 141 225.32 141 225.32 136.14 230.22 136.14 230.22 105.64 225.32 105.64 225.32 97.16"/>
      <polygon class="cls-3" points="241.2 38.74 240.2 38.74 240.2 55.57 235.31 55.57 235.31 113 240.2 113 240.2 117.86 241.2 117.86 241.2 113 246.1 113 246.1 55.57 241.2 55.57 241.2 38.74"/>
      <polygon class="cls-3" points="257.03 56.73 256.03 56.73 256.03 65.88 251.13 65.88 251.13 82.98 256.03 82.98 256.03 85.83 257.03 85.83 257.03 82.98 261.93 82.98 261.93 65.88 257.03 65.88 257.03 56.73"/>
      <polygon class="cls-3" points="272.91 33.36 271.91 33.36 271.91 43.15 267.01 43.15 267.01 78.3 271.91 78.3 271.91 82.98 272.91 82.98 272.91 78.3 277.81 78.3 277.81 43.15 272.91 43.15 272.91 33.36"/>
      <polygon class="cls-3" points="288.74 58.17 287.74 58.17 287.74 61.02 282.84 61.02 282.84 97.16 287.74 97.16 287.74 113 288.74 113 288.74 97.16 293.64 97.16 293.64 61.02 288.74 61.02 288.74 58.17"/>
      <polygon class="cls-3" points="298.72 130.09 303.62 130.09 303.62 141 304.62 141 304.62 130.09 309.52 130.09 309.52 93.22 298.72 93.22 298.72 130.09"/>
      <polygon class="cls-3" points="320.45 115.94 319.45 115.94 319.45 122.56 314.55 122.56 314.55 187 319.45 187 319.45 195.97 320.45 195.97 320.45 187 325.35 187 325.35 122.56 320.45 122.56 320.45 115.94"/>
      <polygon class="cls-3" points="336.33 90.53 335.33 90.53 335.33 117.67 330.43 117.67 330.43 164.79 335.33 164.79 335.33 169.66 336.33 169.66 336.33 164.79 341.23 164.79 341.23 117.67 336.33 117.67 336.33 90.53"/>
      <polygon class="cls-3" points="352.16 107.88 351.16 107.88 351.16 113.89 346.26 113.89 346.26 137.46 351.16 137.46 351.16 148.23 352.16 148.23 352.16 137.46 357.06 137.46 357.06 113.89 352.16 113.89 352.16 107.88"/>
      <polygon class="cls-3" points="368.04 84.28 367.04 84.28 367.04 88.68 362.14 88.68 362.14 124.14 367.04 124.14 367.04 129.01 368.04 129.01 368.04 124.14 372.94 124.14 372.94 88.68 368.04 88.68 368.04 84.28"/>
      <polygon class="cls-3" points="383.87 38.74 382.87 38.74 382.87 51.85 377.97 51.85 377.97 113 382.87 113 382.87 117.86 383.87 117.86 383.87 113 388.77 113 388.77 51.85 383.87 51.85 383.87 38.74"/>
    </g>
    <g>
      <g>
        <line class="cls-1" x1="5.4" y1="157.55" x2="5.4" y2="104.3"/>
        <rect class="cls-4" y="133.09" width="10.79" height="19.59"/>
      </g>
      <g>
        <line class="cls-2" x1="21.28" y1="130.92" x2="21.28" y2="51.79"/>
        <rect class="cls-5" x="15.88" y="78.94" width="10.79" height="47.12"/>
      </g>
      <g>
        <line class="cls-1" x1="37.11" y1="139.57" x2="37.11" y2="96.07"/>
        <rect class="cls-4" x="31.71" y="96.07" width="10.79" height="33.56"/>
      </g>
      <g>
        <line class="cls-2" x1="52.99" y1="97.82" x2="52.99" y2="18.69"/>
        <rect class="cls-5" x="47.59" y="45.83" width="10.79" height="60.42"/>
      </g>
      <g>
        <line class="cls-1" x1="68.82" y1="170.46" x2="68.82" y2="62.94"/>
        <rect class="cls-4" x="63.42" y="90.08" width="10.79" height="76.88"/>
      </g>
      <g>
        <line class="cls-2" x1="84.7" y1="112.46" x2="84.7" y2="33.33"/>
        <rect class="cls-5" x="79.3" y="60.48" width="10.79" height="60.42"/>
      </g>
      <g>
        <line class="cls-1" x1="100.53" y1="79.13" x2="100.53"/>
        <rect class="cls-4" x="95.13" y="27.14" width="10.8" height="47.13"/>
      </g>
      <g>
        <line class="cls-2" x1="116.41" y1="46.69" x2="116.41" y2="3.4"/>
        <rect class="cls-5" x="111.01" y="9.39" width="10.8" height="32.44"/>
      </g>
      <g>
        <line class="cls-1" x1="132.24" y1="74.19" x2="132.24" y2="27.22"/>
        <rect class="cls-4" x="126.84" y="32.17" width="10.8" height="23.25"/>
      </g>
      <g>
        <line class="cls-2" x1="148.12" y1="92.95" x2="148.12" y2="13.83"/>
        <rect class="cls-5" x="142.72" y="40.97" width="10.8" height="38.16"/>
      </g>
      <g>
        <line class="cls-1" x1="163.95" y1="79.13" x2="163.95"/>
        <rect class="cls-4" x="158.55" y="12.23" width="10.8" height="62.04"/>
      </g>
      <g>
        <line class="cls-2" x1="179.83" y1="90.27" x2="179.83" y2="11.14"/>
        <rect class="cls-5" x="174.43" y="38.28" width="10.8" height="74.18"/>
      </g>
      <g>
        <line class="cls-1" x1="195.65" y1="125.15" x2="195.65" y2="46.02"/>
        <rect class="cls-4" x="190.26" y="85.59" width="10.8" height="34.7"/>
      </g>
      <g>
        <line class="cls-2" x1="211.54" y1="134.17" x2="211.54" y2="91.54"/>
        <rect class="cls-5" x="206.14" y="105.41" width="10.8" height="25.19"/>
      </g>
      <g>
        <line class="cls-1" x1="227.36" y1="120.96" x2="227.36" y2="77.12"/>
        <rect class="cls-4" x="221.97" y="85.59" width="10.8" height="30.51"/>
      </g>
      <g>
        <line class="cls-2" x1="243.24" y1="97.82" x2="243.24" y2="18.69"/>
        <rect class="cls-5" x="237.85" y="35.52" width="10.8" height="57.44"/>
      </g>
      <g>
        <line class="cls-1" x1="259.07" y1="65.78" x2="259.07" y2="36.68"/>
        <rect class="cls-4" x="253.68" y="45.83" width="10.8" height="17.11"/>
      </g>
      <g>
        <line class="cls-2" x1="274.95" y1="62.94" x2="274.95" y2="13.32"/>
        <rect class="cls-5" x="269.56" y="23.1" width="10.8" height="35.15"/>
      </g>
      <g>
        <line class="cls-1" x1="290.78" y1="92.95" x2="290.78" y2="38.12"/>
        <rect class="cls-4" x="285.39" y="40.97" width="10.8" height="36.15"/>
      </g>
      <g>
        <line class="cls-2" x1="306.66" y1="120.96" x2="306.66" y2="75.37"/>
        <rect class="cls-5" x="301.27" y="73.17" width="10.8" height="36.88"/>
      </g>
      <g>
        <line class="cls-1" x1="322.49" y1="175.92" x2="322.49" y2="95.89"/>
        <rect class="cls-4" x="317.1" y="102.52" width="10.8" height="64.44"/>
      </g>
      <g>
        <line class="cls-2" x1="338.37" y1="149.61" x2="338.37" y2="70.48"/>
        <rect class="cls-5" x="332.98" y="97.62" width="10.8" height="47.12"/>
      </g>
      <g>
        <line class="cls-1" x1="354.2" y1="128.19" x2="354.2" y2="87.83"/>
        <rect class="cls-4" x="348.81" y="93.85" width="10.79" height="23.56"/>
      </g>
      <g>
        <line class="cls-2" x1="370.08" y1="108.96" x2="370.08" y2="64.24"/>
        <rect class="cls-5" x="364.69" y="68.64" width="10.79" height="35.46"/>
      </g>
      <g>
        <line class="cls-1" x1="385.91" y1="97.82" x2="385.91" y2="18.69"/>
        <rect class="cls-4" x="380.51" y="31.8" width="10.79" height="61.16"/>
      </g>
      <g>
        <line class="cls-2" x1="401.79" y1="117.41" x2="401.79" y2="77.12"/>
        <rect class="cls-5" x="396.39" y="75.37" width="10.79" height="31.37"/>
      </g>
    </g>
  </g>
</svg>